#!OML:ASF F:\VICON\USERDATA\Patient Classification 1\PLAYGROUND\JustinFriday\JustinFriday.ASF
:FULLY-SPECIFIED
:DEGREES
3101
root -21.321 25.8177 -8.54038 243.708 83.2536 -130.723
lowerback 32.962 -2.13442 -2.86771
upperback 11.2506 -1.87663 4.69134
thorax -4.35322 -0.59538 7.03731
lowerneck -0.408104 -4.24083 -2.59309
upperneck 24.1438 -5.87603 5.18467
head 7.71234 -2.34567 1.79164
rclavicle -1.55052e-014 -2.78299e-015
rhumerus 44.6275 7.35747 -74.1758
rradius 60.9826
rwrist 11.6146
rhand -6.95043 -369.24
rfingers 7.12502
rthumb 18.9185 -398.34
lclavicle -1.55052e-014 -2.78299e-015
lhumerus 27.8548 -19.5887 68.6063
lradius 50.7233
lwrist -30.9536
lhand -26.8824 -16.098
lfingers 7.12502
lthumb -0.306469 13.8816
rfemur -44.6298 -1.34952 28.687
rtibia 58.037
rfoot -20.9591 -0.673316
rtoes 25.5326
lfemur -28.4474 4.31416 -13.217
ltibia 42.2817
lfoot 3.99496 -2.06809
ltoes -1.42877
3102
root -21.3845 25.7062 -8.55087 246.558 83.7188 -128.288
lowerback 32.5842 -1.73711 -3.85686
upperback 11.1271 -1.70892 4.81405
thorax -4.3344 -0.551646 7.64859
lowerneck -0.274946 -4.22141 -0.617507
upperneck 24.5384 -5.75633 4.05046
head 7.72553 -2.19906 1.0958
rclavicle 3.81667e-014 7.67309e-014
rhumerus 44.6275 7.35747 -74.1758
rradius 60.9826
rwrist 11.6146
rhand -6.95043 -369.24
rfingers 7.12502
rthumb 18.9185 -398.34
lclavicle 3.81667e-014 7.67309e-014
lhumerus 28.7274 -19.3277 68.5497
lradius 49.8808
lwrist -30.5828
lhand -24.9716 -15.8602
lfingers 7.12502
lthumb 1.53903 14.114
rfemur -46.146 -0.878142 28.4433
rtibia 59.5458
rfoot -22.007 0.261878
rtoes 30.6584
lfemur -27.9064 5.62467 -13.614
ltibia 39.4166
lfoot 4.49359 -3.69065
ltoes -4.59448
3103
root -21.4337 25.6155 -8.56806 249.625 84.0405 -125.292
lowerback 32.3528 -1.44357 -4.45499
upperback 11.1934 -1.48018 5.31505
thorax -4.19152 -0.474916 8.43744
lowerneck -0.874849 -4.26614 -2.70567
upperneck 25.1782 -5.81182 4.76615
head 8.13517 -2.32507 1.67221
rclavicle 3.93594e-014 -5.9039e-014
rhumerus 44.6275 7.35747 -74.1758
rradius 60.9826
rwrist 11.6146
rhand -6.95043 -369.24
rfingers 7.12502
rthumb 18.9185 -398.34
lclavicle 3.93594e-014 -5.9039e-014
lhumerus 29.2539 -19.6933 67.9347
lradius 50.4888
lwrist -28.8643
lhand -23.9389 -14.9741
lfingers 7.12502
lthumb 2.53632 14.9905
rfemur -47.1373 -0.546331 28.251
rtibia 60.8208
rfoot -22.9408 0.741651
rtoes 32.8767
lfemur -26.904 5.63523 -13.7521
ltibia 36.5346
lfoot 4.46312 -4.08287
ltoes -5.66252
3104
root -21.4706 25.5394 -8.60194 251.961 84.4612 -122.707
lowerback 32.5543 -1.8997 -6.0368
upperback 11.4732 -2.45093 5.97494
thorax -3.71825 -1.03197 10.3339
lowerneck -2.00272 -3.27746 -7.00561
upperneck 25.5791 -4.21239 5.40284
head 8.52516 -1.90607 2.7329
rclavicle -2.90226e-014 1.31198e-014
rhumerus 44.6275 7.35747 -74.1758
rradius 60.9826
rwrist 11.6146
rhand -6.95043 -369.24
rfingers 7.12502
rthumb 18.9185 -398.34
lclavicle -2.90226e-014 1.31198e-014
lhumerus 28.2505 -16.6253 67.9584
lradius 51.0785
lwrist -28.3809
lhand -22.2808 -15.3275
lfingers 7.12502
lthumb 4.13761 14.6121
rfemur -47.6106 -0.509077 27.8391
rtibia 61.8352
rfoot -22.3425 0.079551
rtoes 27.3764
lfemur -25.6857 4.69308 -14.184
ltibia 34.0589
lfoot 3.54739 -3.6791
ltoes -10.3994
3105
root -21.5099 25.4862 -8.64824 256.293 84.2953 -117.999
lowerback 34.1368 -3.4757 -10.6379
upperback 11.3079 -5.62017 9.34357
thorax -3.162 -2.9139 17.8995
lowerneck -2.93812 0.209382 -16.227
upperneck 26.0511 1.95894 4.05119
head 8.4895 -0.0124719 4.31782
rclavicle -7.23576e-014 9.38264e-014
rhumerus 44.6275 7.35747 -74.1758
rradius 60.9826
rwrist 11.6146
rhand -6.95043 -369.24
rfingers 7.12502
rthumb 18.9185 -398.34
lclavicle -7.23576e-014 9.38264e-014
lhumerus 22.3707 -5.25333 72.3246
lradius 52.2712
lwrist -29.3307
lhand -20.7788 -14.7269
lfingers 7.12502
lthumb 5.58794 15.1795
rfemur -47.7478 -0.668679 28.116
rtibia 62.6467
rfoot -22.3975 -0.037474
rtoes 24.2632
lfemur -24.2967 1.74914 -13.4796
ltibia 31.6855
lfoot 3.33201 -0.611261
ltoes 1.45357
3106
root -21.5632 25.4402 -8.68714 262.829 83.4185 -111.355
lowerback 34.9375 -3.97153 -9.81201
upperback 10.7255 -6.00673 9.85091
thorax -4.03519 -3.00646 18.2476
lowerneck -2.59795 0.73344 -18.39
upperneck 27.225 2.75867 4.90967
head 8.73672 0.187864 5.06534
rclavicle 5.24792e-014 -3.4191e-014
rhumerus 44.6275 7.35747 -74.1758
rradius 60.9826
rwrist 11.6146
rhand -6.95043 -369.24
rfingers 7.12502
rthumb 18.9185 -398.34
lclavicle 5.24792e-014 -3.4191e-014
lhumerus 20.5978 -4.56836 72.0373
lradius 53.2214
lwrist -28.7011
lhand -21.414 -12.3542
lfingers 7.12502
lthumb 4.97457 17.5674
rfemur -48.1101 -0.51671 29.2353
rtibia 63.3547
rfoot -22.6646 -0.0846065
rtoes 23.1339
lfemur -23.4203 -0.703625 -11.4948
ltibia 29.5768
lfoot 2.42226 2.92743
ltoes 13.0793
3107
root -21.6196 25.3049 -8.71266 271.31 82.6972 -103.06
lowerback 34.4068 -3.85894 -10.1869
upperback 11.0394 -5.81594 11.0524
thorax -3.45602 -3.03555 19.8685
lowerneck -1.03319 1.32864 -19.0966
upperneck 25.1277 3.6547 2.76007
head 7.72617 0.480604 4.37947
rclavicle -7.31528e-014 9.30312e-014
rhumerus 44.6275 7.35747 -74.1758
rradius 60.9826
rwrist 11.6146
rhand -6.95043 -369.24
rfingers 7.12502
rthumb 18.9185 -398.34
lclavicle -7.31528e-014 9.30312e-014
lhumerus 20.4448 -2.1934 73.9827
lradius 53.4134
lwrist -28.947
lhand -22.1377 -11.7655
lfingers 7.12502
lthumb 4.27582 18.1713
rfemur -49.2109 0.202185 30.165
rtibia 64.4281
rfoot -22.8941 0.58394
rtoes 25.6275
lfemur -23.0286 1.37268 -11.3162
ltibia 27.6544
lfoot 3.59143 1.223
ltoes 1.8934
3108
root -21.6448 25.2002 -8.73647 274.42 82.3812 -100.11
lowerback 33.9542 -3.9316 -10.2976
upperback 11.1105 -5.87456 11.5472
thorax -3.14457 -3.12469 20.5605
lowerneck -4.06265 0.953468 -24.4405
upperneck 27.1946 3.96267 5.67504
head 8.84946 0.253891 6.41438
rclavicle -1.19271e-014 4.77083e-014
rhumerus 44.6275 7.35747 -74.1758
rradius 60.9826
rwrist 11.6146
rhand -6.95043 -369.24
rfingers 7.12502
rthumb 18.9185 -398.34
lclavicle -1.19271e-014 4.77083e-014
lhumerus 19.9399 -1.35012 74.3651
lradius 54.1108
lwrist -27.9562
lhand -21.8624 -12.5564
lfingers 7.12502
lthumb 4.54161 17.3749
rfemur -50.1115 0.492064 30.4966
rtibia 65.5362
rfoot -23.4552 2.322
rtoes 32.9303
lfemur -22.7068 2.53725 -11.3074
ltibia 26.0219
lfoot 4.15929 -0.138916
ltoes -3.64987
3109
root -21.6872 25.1201 -8.77937 274.835 82.0759 -99.8845
lowerback 33.8932 -4.19133 -9.64204
upperback 10.8575 -6.00025 11.6102
thorax -3.42073 -3.13202 20.2913
lowerneck -3.94498 1.08601 -24.7732
upperneck 27.4018 4.17048 5.71548
head 8.87158 0.31122 6.50027
rclavicle 1.11319e-013 -1.86858e-013
rhumerus 44.6275 7.35747 -74.1758
rradius 60.9826
rwrist 11.6146
rhand -6.95043 -369.24
rfingers 7.12502
rthumb 18.9185 -398.34
lclavicle 1.11319e-013 -1.86858e-013
lhumerus 19.3848 -1.79642 73.6768
lradius 54.7095
lwrist -26.8468
lhand -22.9885 -13.2033
lfingers 7.12502
lthumb 3.4542 16.7484
rfemur -51.1281 0.422366 30.6911
rtibia 66.6891
rfoot -23.3964 0.847941
rtoes 26.2234
lfemur -22.3238 -0.498882 -10.5918
ltibia 24.3483
lfoot 4.31394 2.39304
ltoes -3.85102
